<svg xmlns="http://www.w3.org/2000/svg" viewBox="0 0 39.48 36.13"><defs><style>.cls-1{fill:#231f20;}</style></defs><title>Asset 4logo</title><g id="Layer_2" data-name="Layer 2"><g id="Layer_1-2" data-name="Layer 1"><path class="cls-1" d="M19.82,23.45c-.15,1-.69,3.76-.89,4.55H4.65v-.44c2.6-.36,2.8-.53,2.8-3.13V12.13c0-2.66-.13-2.88-2.33-3.19V8.5H14c2.81,0,3.88,0,4.24-.06,0,1.11.14,3.11.27,4.25l-.46.08a8.55,8.55,0,0,0-1.16-2.54c-.55-.72-1.11-.86-2.88-.86H11.4c-.69,0-.79.11-.79.79v7.1h3.2c2.25,0,2.4-.57,2.8-2.48h.45v5.83h-.45c-.45-1.88-.58-2.47-2.78-2.47H10.61v6.64c0,2.07.58,2.34,2.37,2.36h2.19c1.66,0,2.08-.25,2.83-1.18a10.54,10.54,0,0,0,1.39-2.6Z"/><path class="cls-1" d="M28.53,28v-.35c1.76-.35,1.76-.7,1.28-1.59S28.57,23.84,27,21c-1.27,2-2.14,3.41-2.93,4.82-.65,1.14-.37,1.43,1.52,1.8V28H20v-.35a3.73,3.73,0,0,0,2.81-1.53c1.27-1.69,2.28-3.33,3.82-5.69-1.21-2.13-2.14-3.81-3.3-5.73-.91-1.5-1.17-1.66-2.7-1.95V12.4h6.34v.35c-1.48.28-1.52.62-1.14,1.33.62,1.17,1.41,2.56,2.43,4.35,1-1.45,1.67-2.65,2.38-3.95.6-1.1.44-1.37-1.44-1.73V12.4h5.38v.35c-1.74.38-2.19.59-3.16,2S29.71,17.26,28.6,19c1.41,2.37,2.47,4.34,3.75,6.4,1,1.69,1.41,2,3.09,2.28V28Z"/><path class="cls-1" d="M39.48,35.36H0V.78H39.48ZM.75,34.61h38V1.53H.75Z"/><circle class="cls-1" cx="19.72" cy="1.15" r="1.02"/><path d="M1.48,1.15c3,.32,7.66.69,9.7,1.16,1.39-.77,1.94-1.12,5.76-1.16-3.82,0-4.37-.38-5.76-1.15C9.14.47,4.51.84,1.48,1.15Z"/><path d="M38,1.15C35,.84,30.34.47,28.3,0c-1.39.77-1.94,1.12-5.76,1.15,3.82,0,4.37.39,5.76,1.16C30.34,1.84,35,1.47,38,1.15Z"/><circle class="cls-1" cx="22.77" cy="1.15" r="0.54"/><circle class="cls-1" cx="16.66" cy="1.15" r="0.54"/><circle class="cls-1" cx="19.69" cy="34.98" r="1.02"/><path d="M1.46,35c3,.31,7.66.68,9.7,1.15C12.54,35.37,13.1,35,16.92,35c-3.82,0-4.38-.39-5.76-1.15C9.12,34.3,4.49,34.67,1.46,35Z"/><path d="M38,35c-3-.31-7.67-.68-9.7-1.15-1.39.76-1.94,1.12-5.76,1.15,3.82,0,4.37.39,5.76,1.15C30.31,35.66,34.94,35.29,38,35Z"/><circle class="cls-1" cx="22.75" cy="34.98" r="0.54"/><circle class="cls-1" cx="16.64" cy="34.98" r="0.54"/></g></g></svg>