<svg xmlns="http://www.w3.org/2000/svg" viewBox="0 0 323.79 228.82"><defs><style>.cls-1{fill:#fff;}</style></defs><title>The Expeditionist</title><g id="Layer_2" data-name="Layer 2"><g id="Layer_1-2" data-name="Layer 1"><path class="cls-1" d="M162.29,34.32V6.63a4,4,0,0,1,1-1.49A25.62,25.62,0,0,1,161.9,0a26.25,26.25,0,0,1-1.43,5.14,4,4,0,0,1,1,1.49V34.32c-3,12.21-6.55,23-11,31.32,4.62,3.58,7.72,9.32,9.52,16.92a3.16,3.16,0,0,1,3.81,0c1.8-7.6,4.9-13.34,9.53-16.92C168.84,57.36,165.31,46.53,162.29,34.32Zm-.39,39.4a32.59,32.59,0,0,0-5.74-9.34,88,88,0,0,0,5.52-17.69h0v9.66c-1,4.22-1.93,8-3,11.33l.31.5c1-3.22,1.95-6.8,2.87-10.8.91,4,1.86,7.58,2.86,10.8A41.21,41.21,0,0,0,161.9,73.72Zm3.17-6c-1-3.37-2-7.12-3-11.34V46.69a88.67,88.67,0,0,0,5.52,17.69A25.55,25.55,0,0,0,165.07,67.69Z"/><path class="cls-1" d="M161.5,194.51v27.68a4,4,0,0,1-1,1.49,26.25,26.25,0,0,1,1.43,5.14,24.93,24.93,0,0,1,1.43-5.14,3.87,3.87,0,0,1-1-1.49V194.51c3-12.22,6.55-23,11-31.32-4.63-3.59-7.73-9.33-9.53-16.92a3.2,3.2,0,0,1-3.81,0c-1.8,7.59-4.9,13.33-9.52,16.92C155,171.46,158.49,182.29,161.5,194.51Zm.4-39.41a32.43,32.43,0,0,0,5.73,9.34,88.67,88.67,0,0,0-5.52,17.69h0v-9.66c.95-4.21,1.93-8,3-11.33l-.31-.5c-1,3.22-1.95,6.8-2.86,10.8-.92-4-1.87-7.58-2.87-10.8A41.25,41.25,0,0,0,161.9,155.1Zm-3.18,6c1,3.36,2,7.12,3,11.33v9.67a87.92,87.92,0,0,0-5.52-17.7A24.6,24.6,0,0,0,158.72,161.14Z"/><path class="cls-1" d="M62.89,107.43A6.72,6.72,0,0,0,61.83,105c-.51-.79-.9-1-2.52-1H56.4V119c0,2.47.27,2.74,2.71,3.12v.44H50.63v-.44c2.35-.46,2.6-.62,2.6-3.12v-15.1h-3.1c-1.43,0-1.76.4-2.18,1a9.06,9.06,0,0,0-1.15,2.59h-.5c.17-1.62.32-3.49.39-5h.38c.46.59.83.61,1.76.61H61.09a1.88,1.88,0,0,0,1.68-.61h.38c0,1.31.06,3.33.21,4.9Z"/><path class="cls-1" d="M81.24,107.32c-1.83.25-2,.46-2,2.57v9.77c0,2.11.19,2.26,2,2.56v.35H74.73v-.35c1.85-.27,2-.5,2-2.56v-5.17H69.44v5.17c0,2.09.2,2.28,2,2.56v.35H64.93v-.35c1.81-.24,2-.45,2-2.56v-9.77c0-2.17-.19-2.29-2-2.57V107h6.51v.35c-1.8.28-2,.44-2,2.57v3.87h7.27v-3.87c0-2.11-.19-2.31-2-2.57V107h6.51Z"/><path class="cls-1" d="M94.74,118.93c-.12.82-.56,3-.72,3.64H82.59v-.35c2.09-.29,2.25-.43,2.25-2.51v-9.84c0-2.13-.11-2.3-1.87-2.55V107h7.1c2.26,0,3.12,0,3.4,0,0,.88.11,2.49.22,3.4l-.37.07a7.2,7.2,0,0,0-.93-2c-.44-.58-.89-.69-2.3-.69H88c-.55,0-.63.09-.63.64V114h2.55c1.81,0,1.93-.45,2.25-2h.36v4.67h-.36c-.36-1.51-.47-2-2.23-2H87.37V120c0,1.65.46,1.87,1.9,1.89H91c1.32,0,1.66-.2,2.26-.94a9.1,9.1,0,0,0,1.11-2.09Z"/><path class="cls-1" d="M119.42,118c-.15,1-.69,3.76-.89,4.55H104.24v-.44c2.6-.36,2.8-.53,2.8-3.13V106.7c0-2.66-.13-2.88-2.33-3.19v-.44h8.88c2.81,0,3.89,0,4.25-.06,0,1.11.14,3.11.26,4.25l-.45.08a8.33,8.33,0,0,0-1.17-2.54c-.55-.73-1.1-.86-2.87-.86H111c-.69,0-.79.11-.79.79v7.1h3.19c2.25,0,2.41-.57,2.81-2.48h.45v5.83h-.45c-.45-1.88-.59-2.48-2.79-2.48h-3.21v6.65c0,2.07.57,2.34,2.37,2.36h2.19c1.65,0,2.07-.25,2.82-1.18a10.88,10.88,0,0,0,1.4-2.6Z"/><path class="cls-1" d="M128.12,122.57v-.35c1.76-.35,1.76-.7,1.28-1.59s-1.23-2.22-2.84-5c-1.28,2-2.15,3.41-2.94,4.82-.64,1.14-.37,1.43,1.53,1.8v.35h-5.6v-.35a3.73,3.73,0,0,0,2.81-1.53c1.27-1.69,2.28-3.34,3.82-5.69-1.21-2.13-2.13-3.81-3.3-5.73-.9-1.5-1.17-1.66-2.69-2V107h6.34v.35c-1.49.28-1.53.62-1.14,1.33.62,1.17,1.41,2.56,2.43,4.35,1-1.45,1.66-2.65,2.38-4,.6-1.11.44-1.37-1.44-1.73V107h5.38v.35c-1.75.38-2.2.59-3.17,2s-1.66,2.47-2.78,4.18c1.41,2.37,2.47,4.34,3.75,6.4,1,1.69,1.42,2,3.09,2.28v.35Z"/><path class="cls-1" d="M141.8,107a6.94,6.94,0,0,1,4,1,3.9,3.9,0,0,1,1.66,3.36c0,3.35-2.91,4.83-5.25,4.83a3.24,3.24,0,0,1-.52-.07l-1.5-.34v4c0,2,.23,2.2,2.11,2.48v.35h-6.62v-.35c1.82-.28,2-.45,2-2.5v-9.89c0-2.1-.19-2.23-2-2.51V107Zm-1.62,8.26a4.73,4.73,0,0,0,1.42.16c1,0,3.1-.5,3.1-4.08,0-2.79-1.36-3.82-3.2-3.82a2.21,2.21,0,0,0-1.07.2c-.2.16-.25.44-.25,1Z"/><path class="cls-1" d="M160.87,118.93c-.12.82-.56,3-.72,3.64H148.73v-.35c2.08-.29,2.24-.43,2.24-2.51v-9.84c0-2.13-.11-2.3-1.87-2.55V107h7.1c2.26,0,3.12,0,3.4,0,0,.88.11,2.49.22,3.4l-.37.07a7.2,7.2,0,0,0-.93-2c-.44-.58-.89-.69-2.3-.69h-2.09c-.55,0-.63.09-.63.64V114h2.55c1.81,0,1.93-.45,2.25-2h.36v4.67h-.36c-.36-1.51-.47-2-2.23-2H153.5V120c0,1.65.46,1.87,1.9,1.89h1.75c1.32,0,1.66-.2,2.26-.94a9.1,9.1,0,0,0,1.11-2.09Z"/><path class="cls-1" d="M168.87,107c2.95,0,5.17.67,6.62,2a6.76,6.76,0,0,1,2.09,5.19,7.76,7.76,0,0,1-2.89,6.42,9.67,9.67,0,0,1-6.18,2h-6.42v-.35c1.79-.32,2-.48,2-2.53v-9.84c0-2.07-.21-2.25-2-2.53V107Zm-2.27,12.28c0,2,.77,2.66,2.81,2.66,3.56,0,5.29-2.65,5.29-7.32,0-2.58-.81-4.73-2.38-5.91a5.5,5.5,0,0,0-3.76-1.16,3.26,3.26,0,0,0-1.68.32c-.28.19-.33.52-.33,1.38Z"/><path class="cls-1" d="M179.35,122.57v-.35c1.83-.32,2-.51,2-2.61v-9.7c0-2.15-.17-2.31-2-2.59V107h6.51v.35c-1.82.29-2,.43-2,2.59v9.69c0,2.13.15,2.29,2,2.62v.35Z"/><path class="cls-1" d="M200.58,110.46a5.27,5.27,0,0,0-.84-2c-.41-.63-.72-.84-2-.84h-2.33v12.08c0,2,.21,2.19,2.17,2.5v.35h-6.79v-.35c1.88-.37,2.09-.5,2.09-2.5V107.64h-2.49c-1.14,0-1.4.32-1.74.77a7.33,7.33,0,0,0-.92,2.08h-.4c.14-1.3.26-2.79.31-4h.31c.36.47.66.49,1.4.49h9.81a1.54,1.54,0,0,0,1.35-.49h.3c0,1,.05,2.66.17,3.92Z"/><path class="cls-1" d="M202.31,122.57v-.35c1.84-.32,2-.51,2-2.61v-9.7c0-2.15-.16-2.31-2-2.59V107h6.52v.35c-1.82.29-2,.43-2,2.59v9.69c0,2.13.16,2.29,2,2.62v.35Z"/><path class="cls-1" d="M218.54,106.63a7.75,7.75,0,0,1,7.73,8c0,5-3.51,8.33-7.84,8.33a7.79,7.79,0,0,1-7.84-8C210.59,110.74,213.56,106.63,218.54,106.63Zm-.47.57c-2.5,0-4.53,2.41-4.53,7.13,0,4.56,2,8,5.34,8,2.55,0,4.43-2.43,4.43-7.08C223.31,110.19,221.2,107.2,218.07,107.2Z"/><path class="cls-1" d="M244.13,107.32c-1.62.35-1.91.62-1.95,2.25,0,.71-.08,1.25-.08,3.6v9.71h-.52L230.8,109.81v6.4c0,2.26,0,3,.08,3.76.07,1.55.3,1.93,2.41,2.25v.35h-5.5v-.35c1.79-.32,2.05-.63,2.13-2.21,0-.79.1-1.7.1-3.8v-6.57a1.85,1.85,0,0,0-.37-1.18,2.76,2.76,0,0,0-2.14-1.14V107h4.16l9.67,11.46v-5.26c0-2.35-.05-2.88-.08-3.6-.08-1.63-.55-2-2.61-2.25V107h5.48Z"/><path class="cls-1" d="M245.54,122.57v-.35c1.83-.32,2-.51,2-2.61v-9.7c0-2.15-.17-2.31-2-2.59V107h6.51v.35c-1.82.29-2,.43-2,2.59v9.69c0,2.13.15,2.29,2,2.62v.35Z"/><path class="cls-1" d="M262.14,110.31c-.48-1.89-1.48-3.15-3.45-3.15a2.32,2.32,0,0,0-2.38,2.61c0,1.63.9,2.36,2.9,3.54s3.92,2.44,3.92,5-2.25,4.64-5.31,4.64a13,13,0,0,1-3.55-.62c-.14-.52-.5-3.1-.53-3.51l.36-.08c.49,1.87,1.79,3.67,4.09,3.67,1.79,0,2.56-1.29,2.56-2.9s-1-2.69-2.71-3.72c-2-1.24-3.86-2.44-3.86-4.88s1.91-4.26,4.93-4.26a18.22,18.22,0,0,1,3,.34c.1.87.23,2.12.4,3.26Z"/><path class="cls-1" d="M277.48,110.46a5.44,5.44,0,0,0-.85-2c-.41-.63-.72-.84-2-.84h-2.33v12.08c0,2,.22,2.19,2.17,2.5v.35h-6.78v-.35c1.88-.37,2.08-.5,2.08-2.5V107.64h-2.49c-1.14,0-1.4.32-1.74.77a7.63,7.63,0,0,0-.92,2.08h-.4c.14-1.3.26-2.79.32-4h.3c.37.47.67.49,1.41.49H276a1.53,1.53,0,0,0,1.34-.49h.31c0,1,0,2.66.16,3.92Z"/><path class="cls-1" d="M27,100.9l.66-1.19c.31.46.75.82.7,1.1a10.1,10.1,0,0,0,.71,5.06,10.84,10.84,0,0,1,.06,3.27c.36,0,1-.2,1.46,0,.62.36.61,1.11.3,1.79a6.64,6.64,0,0,0,0,5.6c.3.68.36,1.43-.26,1.81-.42.25-1.12,0-1.75,0a6.84,6.84,0,0,1-.31,4.89,7.52,7.52,0,0,0-.19,2.94c0,.63.09,1.21-.82,1.37L27,126.58c-.08.12-.19.21-.2.3a13.84,13.84,0,0,1-3.36,8.77c-1.12,1.4-2.14,2.89-3.14,4.38a7.84,7.84,0,0,0-1.55,5.83,4.48,4.48,0,0,1-3.76-5.1,6.26,6.26,0,0,1,2.39-4.24c1.1-.87,2.21-1.71,3.36-2.51a7.32,7.32,0,0,0,3.17-8.18c-.27-1.3-.41-2.62-.66-3.93a9,9,0,0,1,.47-5.55c-1.93,1-2.09,1.21-4.78,7L14.39,122l1.85-5.18c-1.49.79-2.84,1.47-4.14,2.21a1.9,1.9,0,0,1-2,0c-3.23-1.71-6.49-3.36-10.06-5.2,3.72-2.2,7.42-3.87,11.05-5.81l5.16,2.69c-.63-1.8-1.19-3.37-1.83-5.18L19,104.32c.62,1.39,1.11,2.7,1.77,3.91a7.47,7.47,0,0,0,3.08,3.28c-1.51-3.39-.35-6.43,0-9.49.08-.66.16-1.32.23-2a6.18,6.18,0,0,0-2.51-5.77c-1.19-1-2.5-1.78-3.66-2.78A10,10,0,0,1,15.68,89c-1.66-3-.46-6,3-7.57-.52,3.87,1.67,6.6,3.78,9.28C24.87,93.72,26.93,96.82,27,100.9Zm.65,4.15-1.09-3.17c-.19,1.58-.33,2.71-.48,3.91Zm0,17.48-1.61-.69.5,3.34.23,0C27.07,124.37,27.34,123.52,27.67,122.53Z"/><path class="cls-1" d="M296.76,126.37l-.66,1.2c-.31-.47-.75-.83-.7-1.1a10.12,10.12,0,0,0-.7-5.07,10.78,10.78,0,0,1-.06-3.26c-.37,0-1.05.2-1.47,0-.62-.37-.6-1.12-.3-1.8a6.64,6.64,0,0,0,0-5.6c-.3-.67-.35-1.43.26-1.8.42-.26,1.12,0,1.76,0a6.83,6.83,0,0,1,.3-4.89,7.78,7.78,0,0,0,.2-3c0-.62-.09-1.21.81-1.37l.58,1.06c.08-.12.2-.21.2-.3a14,14,0,0,1,3.36-8.77c1.12-1.4,2.14-2.89,3.14-4.38A7.84,7.84,0,0,0,305,81.41a4.47,4.47,0,0,1,3.76,5.1,6.29,6.29,0,0,1-2.39,4.25c-1.1.86-2.21,1.71-3.36,2.5a7.32,7.32,0,0,0-3.17,8.18c.27,1.3.42,2.63.67,3.93a9.12,9.12,0,0,1-.47,5.56c1.92-1,2.09-1.21,4.77-7l4.56,1.29-1.86,5.18c1.49-.79,2.84-1.46,4.14-2.2a1.88,1.88,0,0,1,2,0c3.23,1.71,6.5,3.36,10.06,5.2-3.72,2.2-7.42,3.88-11.05,5.81l-5.16-2.68c.63,1.79,1.19,3.36,1.83,5.17L304.83,123c-.63-1.4-1.11-2.71-1.78-3.92a7.46,7.46,0,0,0-3.08-3.28c1.51,3.4.35,6.43,0,9.49-.08.66-.15,1.32-.23,2a6.19,6.19,0,0,0,2.51,5.78c1.19,1,2.5,1.77,3.66,2.77a9.85,9.85,0,0,1,2.22,2.52c1.66,3,.46,6-3,7.56.52-3.87-1.67-6.6-3.78-9.28C298.92,133.55,296.86,130.45,296.76,126.37Zm-.64-4.15,1.08,3.17c.2-1.58.33-2.71.48-3.9Zm0-17.48,1.6.69-.5-3.34-.23,0C296.73,102.91,296.45,103.75,296.13,104.74Z"/><path class="cls-1" d="M290.2,135.58H33.67V91.76H290.2Zm-255.53-1H289.2V92.76H34.67Z"/><circle class="cls-1" cx="161.93" cy="92.24" r="3.67"/><path class="cls-1" d="M86.25,92.24c10.94,1.13,27.61,2.46,34.94,4.16,5-2.76,7-4,20.74-4.16-13.75-.11-15.74-1.39-20.74-4.15C113.86,89.79,97.19,91.12,86.25,92.24Z"/><path class="cls-1" d="M237.77,92.24c-10.93-1.12-27.6-2.45-34.93-4.15-5,2.76-7,4-20.74,4.15,13.75.12,15.74,1.4,20.74,4.16C210.17,94.7,226.84,93.37,237.77,92.24Z"/><circle class="cls-1" cx="161.85" cy="135.03" r="3.67"/><path class="cls-1" d="M86.17,135c10.94,1.13,27.61,2.45,34.94,4.15,5-2.75,7-4,20.74-4.15-13.75-.12-15.74-1.4-20.74-4.16C113.78,132.58,97.11,133.9,86.17,135Z"/><path class="cls-1" d="M237.69,135c-10.93-1.13-27.6-2.45-34.94-4.16-5,2.76-7,4-20.73,4.16,13.75.12,15.74,1.4,20.73,4.15C210.09,137.48,226.76,136.16,237.69,135Z"/><circle class="cls-1" cx="161.93" cy="92.24" r="1.93"/><circle class="cls-1" cx="172.85" cy="135.03" r="1.93"/><circle class="cls-1" cx="172.93" cy="92.24" r="1.93"/><circle class="cls-1" cx="150.93" cy="92.24" r="1.93"/><circle class="cls-1" cx="150.85" cy="135.03" r="1.93"/></g></g></svg>